<svg xmlns="http://www.w3.org/2000/svg" viewBox="0 0 128 128">
  <path fill="#FFFFFF" d="M63.982 0h.035c4.782.007 9.576.25 14.342.723l.545.068c4.729.511 9.442 1.288 14.123 2.262a120.242 120.242 0 0 1 13.59 3.692 95.713 95.713 0 0 1 12.307 5.03 68.179 68.179 0 0 1 5.615 3.112 49.934 49.934 0 0 1 3.175 2.227c.843.655 1.319 1.237 1.38 1.712-.06.476-.537 1.058-1.38 1.711a49.903 49.903 0 0 1-3.175 2.227 68.209 68.209 0 0 1-5.616 3.112 95.683 95.683 0 0 1-12.306 5.03 120.242 120.242 0 0 1-13.59 3.691c-4.681.975-9.395 1.752-14.123 2.262l-.545.068a115.395 115.395 0 0 1-14.342.724c-4.783-.007-9.577-.25-14.342-.724l-.545-.068c-4.729-.51-9.442-1.287-14.123-2.262a120.242 120.242 0 0 1-13.59-3.691 95.683 95.683 0 0 1-12.307-5.03 68.137 68.137 0 0 1-5.615-3.112 49.886 49.886 0 0 1-3.175-2.227c-.843-.653-1.32-1.235-1.38-1.711.06-.475.537-1.057 1.38-1.712a49.886 49.886 0 0 1 3.175-2.227 68.137 68.137 0 0 1 5.615-3.112 95.713 95.713 0 0 1 12.307-5.03 120.242 120.242 0 0 1 13.59-3.692C39.553 1.988 44.266 1.21 48.994.7l.545-.068A115.402 115.402 0 0 1 63.882 0m0 4.959c-4.399-.004-8.796.215-13.173.655l-.545.068c-4.527.483-9.039 1.227-13.523 2.155a121.581 121.581 0 0 0-12.924 3.48 95.85 95.85 0 0 0-11.553 4.645 69.744 69.744 0 0 0-5.08 2.768 47.506 47.506 0 0 0-3.058 2.108l.004.003a47.43 47.43 0 0 0 3.058 2.107 69.743 69.743 0 0 0 5.08 2.769 95.85 95.85 0 0 0 11.552 4.645 121.581 121.581 0 0 0 12.924 3.479c4.484.928 8.996 1.673 13.523 2.156l.545.068c4.377.44 8.774.66 13.173.655 4.399.004 8.796-.215 13.173-.655l.545-.068c4.527-.483 9.039-1.228 13.523-2.156a121.52 121.52 0 0 0 12.924-3.48 95.85 95.85 0 0 0 11.553-4.644 69.744 69.744 0 0 0 5.079-2.768 47.43 47.43 0 0 0 3.058-2.108l-.003-.003a47.491 47.491 0 0 0-3.058-2.107 69.744 69.744 0 0 0-5.08-2.769 95.85 95.85 0 0 0-11.553-4.644 121.52 121.52 0 0 0-12.923-3.48c-4.484-.928-8.996-1.672-13.523-2.155l-.545-.068a115.684 115.684 0 0 0-13.173-.655m28.845 104.905v-65.83L64 30.12 35.173 44.035v65.829L64 123.777l28.827-13.913zm3.228-62.825-32.055 15.456-32.055-15.456v46.168l32.055 15.456 32.055-15.456V47.04z" />
</svg>